<svg id="Capa_1" data-name="Capa 1" xmlns="http://www.w3.org/2000/svg" xmlns:xlink="http://www.w3.org/1999/xlink" viewBox="0 0 474.42 397.45"><defs><style>.cls-1,.cls-3{fill:#000153;}.cls-1,.cls-10{fill-rule:evenodd;}.cls-2{fill:url(#linear-gradient);}.cls-4{fill:url(#linear-gradient-2);}.cls-5{fill:#fe182a;}.cls-6{fill:url(#linear-gradient-3);}.cls-7{fill:url(#linear-gradient-4);}.cls-8{fill:url(#linear-gradient-5);}.cls-9{fill:#736d6f;}.cls-10{fill:#fff;}</style><linearGradient id="linear-gradient" x1="8916.42" y1="-5074.36" x2="8916.42" y2="-5296.64" gradientTransform="translate(-8677.39 5360.7)" gradientUnits="userSpaceOnUse"><stop offset="0" stop-color="#736d6f"/><stop offset="1" stop-color="#fff"/></linearGradient><linearGradient id="linear-gradient-2" x1="8848.81" y1="-5183.45" x2="8848.81" y2="-5295.78" gradientTransform="translate(-8548.72 5494.11)" gradientUnits="userSpaceOnUse"><stop offset="0" stop-color="#000153"/><stop offset="1" stop-color="#fff"/></linearGradient><linearGradient id="linear-gradient-3" x1="8945.01" y1="-5197.49" x2="8945.01" y2="-5092.39" gradientTransform="translate(-8677.39 5360.7)" gradientUnits="userSpaceOnUse"><stop offset="0" stop-color="#fe182a"/><stop offset="1" stop-color="#fff"/></linearGradient><linearGradient id="linear-gradient-4" x1="8913.39" y1="-5092.27" x2="8913.39" y2="-5194.45" xlink:href="#linear-gradient-3"/><linearGradient id="linear-gradient-5" x1="8913.39" y1="-5296.64" x2="8913.39" y2="-5194.46" gradientTransform="translate(-8677.39 5360.7)" xlink:href="#linear-gradient-2"/></defs><title>logo valnalon vector</title><polygon class="cls-1" points="116.28 314.71 106.75 314.71 115.75 348.45 122.55 348.45 142.15 314.71 132.62 314.71 121.27 335.21 116.28 314.71"/><path class="cls-1" d="M284.26,476l1.29,5.86h9.35l-7.52-33.74h-9.57l-18.17,33.74H269l3.23-5.86Zm-1.34-6.72h-7.29l5.27-10.74H281Z" transform="translate(-128.67 -133.41)"/><polygon class="cls-1" points="183.19 314.71 174.42 314.71 169.23 348.45 188.51 348.45 189.66 341.02 179.14 341.02 183.19 314.71"/><polygon class="cls-1" points="191.54 348.45 200.31 348.45 203.49 327.78 203.58 327.78 216.47 348.45 225.24 348.45 230.43 314.71 221.66 314.71 218.48 335.34 218.39 335.34 205.5 314.71 196.73 314.71 191.54 348.45"/><path class="cls-1" d="M381.53,476l1.29,5.86h9.35l-7.52-33.74h-9.57l-18.17,33.74h9.31l3.23-5.86Zm-1.34-6.72h-7.3l5.28-10.74h.09Z" transform="translate(-128.67 -133.41)"/><polygon class="cls-1" points="280.46 314.71 271.69 314.71 266.5 348.45 285.78 348.45 286.93 341.02 276.41 341.02 280.46 314.71"/><path class="cls-1" d="M439.8,447c-9.71,0-19.76,7.16-21.33,17.36-1.68,10.92,5,18.62,15.79,18.62a21.63,21.63,0,0,0,21.53-18.62C457.36,454.17,449.51,447,439.8,447Zm-1.31,8.5c5.24,0,8.88,4.25,8.16,8.9-.9,5.82-5.84,10.07-11.08,10.07s-8.88-4.25-8-10.07C428.31,459.76,433.25,455.51,438.49,455.51ZM446.87,438l-4.42-3.58L435,442.08l3.22,2.65Z" transform="translate(-128.67 -133.41)"/><polygon class="cls-1" points="328.81 348.45 337.59 348.45 340.77 327.78 340.86 327.78 353.74 348.45 362.51 348.45 367.7 314.71 358.93 314.71 355.76 335.34 355.67 335.34 342.78 314.71 334.01 314.71 328.81 348.45"/><rect class="cls-2" x="107.46" y="64.06" width="263.14" height="222.27"/><path class="cls-3" d="M278.73,299.81l47.7-101.49V304.66l-7.34,15.6c-58.72,107.53-112.47,123.2-190.42,127.83C193.49,433.81,241.48,383.16,278.73,299.81Z" transform="translate(-128.67 -133.41)"/><path class="cls-4" d="M273.73,310.66q2.53-5.32,5-10.85l47.7-101.48V304.66s-2.74,5.83-2.65,5.83Z" transform="translate(-128.67 -133.41)"/><path class="cls-5" d="M453,281.7l-56.43,120h-50.1l66.17-140.47C471.4,153.72,525.15,138,603.09,133.41,538.28,147.69,490.28,198.35,453,281.7Z" transform="translate(-128.67 -133.41)"/><polygon class="cls-6" points="317.39 163.21 267.94 268.31 217.84 268.31 267.35 163.21 317.39 163.21"/><rect class="cls-7" x="204.14" y="166.24" width="63.72" height="102.18"/><rect class="cls-8" x="204.14" y="64.06" width="63.72" height="102.17"/><rect class="cls-9" x="107.93" y="367.02" width="261.52" height="30.43"/><path class="cls-10" d="M263.45,507.53a8.71,8.71,0,0,0-3.63-.8,10,10,0,0,0-6.42,2.56,9.8,9.8,0,0,0-3.22,5.79,6.78,6.78,0,0,0,1.62,6,7.56,7.56,0,0,0,5.58,2.32,12.67,12.67,0,0,0,3.74-.73l.76-4.93a5.57,5.57,0,0,1-3.8,1.68,3.45,3.45,0,0,1-3.62-4.3,5,5,0,0,1,4.89-4.39,3.77,3.77,0,0,1,3.34,1.74Z" transform="translate(-128.67 -133.41)"/><path class="cls-10" d="M270.38,512.2h-3.82L264.9,523h3.82Zm-.95-6.27a2.62,2.62,0,0,0-2.47,2.14,1.8,1.8,0,0,0,1.82,2.14,2.59,2.59,0,0,0,2.46-2.14A1.79,1.79,0,0,0,269.43,505.93Z" transform="translate(-128.67 -133.41)"/><path class="cls-10" d="M274.14,512.2l-1,6.48c-.55,3.55,1.78,4.64,5,4.64s5.89-1.09,6.44-4.64l1-6.48h-3.82L280.9,518c-.21,1.36-.7,2.33-2.27,2.33s-1.76-1-1.55-2.33l.88-5.75Z" transform="translate(-128.67 -133.41)"/><path class="cls-10" d="M295.85,523h3.81l2.68-17.41h-3.82l-1.18,7.7a3.75,3.75,0,0,0-3.12-1.4,6.61,6.61,0,0,0-6.27,5.72c-.47,3.08,1.36,5.75,4.55,5.75a4.45,4.45,0,0,0,3.49-1.55h0Zm-1.13-7.8a2,2,0,0,1,2.08,2.44A2.77,2.77,0,0,1,294,520a1.93,1.93,0,0,1-2.08-2.4A2.82,2.82,0,0,1,294.72,515.16Z" transform="translate(-128.67 -133.41)"/><path class="cls-10" d="M310.26,515.16a2,2,0,0,1,2.07,2.44,2.76,2.76,0,0,1-2.82,2.4,1.93,1.93,0,0,1-2.08-2.4A2.82,2.82,0,0,1,310.26,515.16Zm6.6-3H313l-.16,1a3.75,3.75,0,0,0-3.12-1.4,6.61,6.61,0,0,0-6.27,5.72c-.48,3.08,1.36,5.75,4.55,5.75a4.46,4.46,0,0,0,3.49-1.55h0l-.19,1.19h3.82Z" transform="translate(-128.67 -133.41)"/><path class="cls-10" d="M327.22,523H331l2.68-17.41H329.9l-1.19,7.7a3.75,3.75,0,0,0-3.12-1.4,6.61,6.61,0,0,0-6.27,5.72c-.48,3.08,1.36,5.75,4.55,5.75a4.45,4.45,0,0,0,3.49-1.55h0Zm-1.13-7.8a2,2,0,0,1,2.08,2.44,2.77,2.77,0,0,1-2.83,2.4,1.93,1.93,0,0,1-2.08-2.4A2.82,2.82,0,0,1,326.09,515.16Z" transform="translate(-128.67 -133.41)"/><polygon class="cls-10" points="222.92 377.22 226.32 377.22 226.86 373.73 215.95 373.73 215.41 377.22 218.81 377.22 216.92 389.55 221.03 389.55 222.92 377.22"/><path class="cls-10" d="M358.06,516a2.6,2.6,0,0,1,2.53-1.7,1.78,1.78,0,0,1,1.9,1.7Zm7.69,1.8c.57-3.67-1.23-6-5-6a6.59,6.59,0,0,0-6.84,5.75c-.57,3.71,1.78,5.72,5.35,5.72a6.26,6.26,0,0,0,6-3.69h-3.67a2.27,2.27,0,0,1-2,1c-1.57,0-2.26-.83-2-2.39h8Z" transform="translate(-128.67 -133.41)"/><path class="cls-10" d="M377.45,512.48a4.67,4.67,0,0,0-2.42-.63,7,7,0,0,0-6.92,5.85,4.75,4.75,0,0,0,5,5.62,6.55,6.55,0,0,0,2.77-.61l.5-3.23a3.38,3.38,0,0,1-2,.73,2.15,2.15,0,0,1-2.28-2.64,3.12,3.12,0,0,1,3-2.62,2.93,2.93,0,0,1,1.85.75Z" transform="translate(-128.67 -133.41)"/><path class="cls-10" d="M385,512.2h-3.82L379.56,523h3.81l.86-5.58c.21-1.34.83-2.49,2.38-2.49,1.89,0,1.44,1.8,1.28,2.83l-.8,5.24h3.81l1-6.64c.41-2.65-.46-4.47-3.35-4.47a4.39,4.39,0,0,0-3.71,1.74h0Z" transform="translate(-128.67 -133.41)"/><path class="cls-10" d="M402.19,511.85c-3.46,0-6.8,2.07-7.37,5.75s2.16,5.72,5.6,5.72,6.8-2.08,7.37-5.72S405.65,511.85,402.19,511.85Zm-.51,3.31a2,2,0,0,1,2.08,2.44,2.77,2.77,0,0,1-2.83,2.4,1.93,1.93,0,0,1-2.08-2.4A2.82,2.82,0,0,1,401.68,515.16Z" transform="translate(-128.67 -133.41)"/><polygon class="cls-10" points="287.89 372.14 284.07 372.14 281.39 389.55 285.21 389.55 287.89 372.14"/><path class="cls-10" d="M425.1,511.85c-3.46,0-6.8,2.07-7.37,5.75s2.16,5.72,5.6,5.72,6.8-2.08,7.37-5.72S428.56,511.85,425.1,511.85Zm-.51,3.31a2,2,0,0,1,2.08,2.44,2.76,2.76,0,0,1-2.82,2.4,1.94,1.94,0,0,1-2.09-2.4A2.82,2.82,0,0,1,424.59,515.16Zm3.83-7.72-2.07-1.68-3.51,3.61,1.51,1.24Z" transform="translate(-128.67 -133.41)"/><path class="cls-10" d="M446.43,512.2h-3.81l-.18,1.14h0a3.11,3.11,0,0,0-2.94-1.49,6.71,6.71,0,0,0-6.41,5.83c-.48,3.1,1.31,5.49,4.46,5.49a5.23,5.23,0,0,0,3.64-1.46l-.07.5c-.27,1.74-.88,3.08-2.93,3.08a2.3,2.3,0,0,1-1.06-.25,1,1,0,0,1-.58-.82h-4.28c-.1,2.83,3,4.11,5.49,4.11,4,0,6.51-1.84,7.22-6.42Zm-6.59,2.88a2,2,0,0,1,2.08,2.43,2.76,2.76,0,0,1-2.82,2.41,1.94,1.94,0,0,1-2.09-2.41A2.82,2.82,0,0,1,439.84,515.08Z" transform="translate(-128.67 -133.41)"/><path class="cls-10" d="M454,512.2H450.2L448.54,523h3.82Zm-.95-6.27a2.6,2.6,0,0,0-2.46,2.14,1.79,1.79,0,0,0,1.8,2.14,2.59,2.59,0,0,0,2.47-2.14A1.79,1.79,0,0,0,453.07,505.93Z" transform="translate(-128.67 -133.41)"/><path class="cls-10" d="M465.56,512.48a4.63,4.63,0,0,0-2.41-.63,7,7,0,0,0-6.93,5.85,4.76,4.76,0,0,0,5,5.62,6.56,6.56,0,0,0,2.78-.61l.5-3.23a3.38,3.38,0,0,1-2,.73,2.14,2.14,0,0,1-2.28-2.64,3.11,3.11,0,0,1,3-2.62,2.93,2.93,0,0,1,1.85.75Z" transform="translate(-128.67 -133.41)"/><path class="cls-10" d="M474.49,515.16a2,2,0,0,1,2.09,2.44,2.77,2.77,0,0,1-2.83,2.4,1.94,1.94,0,0,1-2.09-2.4A2.82,2.82,0,0,1,474.49,515.16Zm6.6-3h-3.81l-.17,1a3.73,3.73,0,0,0-3.11-1.4,6.63,6.63,0,0,0-6.28,5.72c-.47,3.08,1.37,5.75,4.56,5.75a4.43,4.43,0,0,0,3.48-1.55h.05l-.19,1.19h3.82Z" transform="translate(-128.67 -133.41)"/></svg>