<svg id="Capa_1" data-name="Capa 1" xmlns="http://www.w3.org/2000/svg" viewBox="0 0 262.94 141.75"><defs><style>.cls-1{fill:#7b7b7d;stroke:#7b7b7d;stroke-miterlimit:3.86;stroke-width:0.04px;}.cls-1,.cls-3{fill-rule:evenodd;}.cls-2{fill:#174791;}.cls-3{fill:#fff;}</style></defs><title>logo vector Principado</title><path class="cls-1" d="M437.56,548.35H407.1l.06,22v7.69a6.9,6.9,0,0,0,.71,3.53,6.09,6.09,0,0,0,5,3.17h7.75a4.46,4.46,0,0,1,1.91.6,4.75,4.75,0,0,1,1.6-.59h7.61a5.83,5.83,0,0,0,5.91-5V566.64Zm.79-.89.11,32.08a6.89,6.89,0,0,1-4.13,5.61,7.08,7.08,0,0,1-2.26.5H426.2c-1.29,0-2.78-.26-3.66.78a3.61,3.61,0,0,0-2.76-.82l-6.8,0a6.86,6.86,0,0,1-6.6-6.68v-17.7l-.12-13.79Z" transform="translate(-289 -524.61)"/><path class="cls-1" d="M422.74,525.08h-1.18v.67h-.73l0,1.11.71,0,0,1.13a8.93,8.93,0,0,0-2.84.84l-.95-.41a7.46,7.46,0,0,0-8.09,2.18,7.28,7.28,0,0,0-1.23,7.52,1.76,1.76,0,0,1,1.11.83c.26.79.64,1.57.89,2.35a2,2,0,0,0,1.83,1.21,1,1,0,0,0,.27.5.78.78,0,0,0,.44.08l19.06,0a.75.75,0,0,0,.44-.59,2.43,2.43,0,0,0,1.22-.46c1.1-1.17.73-3.22,2.45-3.86l.36-1.22a7.53,7.53,0,0,0-10.86-8.1,8,8,0,0,0-1.69-.62c-.38-.14-.72-.16-1.17-.28v-1.08l.72,0v-1.08h-.74Zm8.55,19h-18l.28,1.12-.25.17a.47.47,0,0,0-.16.48.53.53,0,0,0,.36.43H431l.31-.13a.72.72,0,0,0,.14-.54c-.06-.22-.27-.27-.42-.43A8.25,8.25,0,0,0,431.29,544.06Zm-7.74-18.65a1.82,1.82,0,0,1,.2,1.44c-.1.35-.44.62-.63.91a11.79,11.79,0,0,1,2.49.77,8,8,0,0,1,8.52,1.08,7.88,7.88,0,0,1,2.45,8c-.17.42-.16,1.12-.83,1.07-.89.81-.9,2.09-1.48,3.08a2.25,2.25,0,0,1-1.57,1c-.18.29-.43.64-.86.61a7.47,7.47,0,0,0-.52,1.64c.17.26.42.41.37.77s-.18.39-.26.56l-.41.21H413.59a.86.86,0,0,1-.58-.44.83.83,0,0,1,.28-1.08,4.21,4.21,0,0,0-.48-1.57,1,1,0,0,1-.75-.6c-2.25-.23-1.95-2.72-3-4-.25-.31-.71-.25-.89-.57a7.76,7.76,0,0,1,1.61-8.11,7.66,7.66,0,0,1,8.33-1.88l.57.25a10.51,10.51,0,0,1,2.49-.73,2.06,2.06,0,0,1-.61-2,1.74,1.74,0,0,1,1.33-1.15A1.69,1.69,0,0,1,423.55,525.41Z" transform="translate(-289 -524.61)"/><path class="cls-1" d="M433.86,532.71a5.46,5.46,0,0,0-5.31-2.64,9.84,9.84,0,0,1,1.82,3.78H432a3.08,3.08,0,0,1,2.56,1.56A5.39,5.39,0,0,0,433.86,532.71Zm-6.41,1.2a5.77,5.77,0,0,0-3.75-3.66v3.65Zm-6.71-3.29c0-.11,0-.34-.14-.36a5.31,5.31,0,0,0-3.6,3.6c1.23,0,3.75,0,3.75,0Zm-4.94-.54a5.52,5.52,0,0,0-2.72.42,5.38,5.38,0,0,0-3.17,4.82l.36-.53c.88-1.26,2.69-.82,3.7-.92a11.43,11.43,0,0,1,.86-2.21C415.12,531.09,415.47,530.65,415.8,530.08ZM414,534.21c-.87,0-2.24-.31-3,.39a2.21,2.21,0,0,0-.86,2.13,1.41,1.41,0,0,1,1.44.19,1.4,1.4,0,0,1,.42,1.52l.18,0a1.71,1.71,0,0,1,1.05,1.2.7.7,0,0,1,.87,0c0-.64.76-1.11,1.2-1.15a4.33,4.33,0,0,1-.08-.5,1.41,1.41,0,0,1,.82-1.25,1.46,1.46,0,0,1,1.11.08,1.28,1.28,0,0,1,.58,1.72,1.59,1.59,0,0,1,1.22,1.16.87.87,0,0,1,.64-.18c.16,0,.31.27.44.1A1.38,1.38,0,0,1,421,538.5l-.05-.69a1.42,1.42,0,0,1,.77-1.06,1.37,1.37,0,0,1,1.42.24,1.42,1.42,0,0,1,.35,1.48,1.52,1.52,0,0,1,1.22,1.13c.26-.2.65-.08.92,0a1.57,1.57,0,0,1,1.19-1.15l-.06-.65a1.45,1.45,0,0,1,.94-1.09,1.38,1.38,0,0,1,1.41.5,2,2,0,0,1,.25,1.27,1.5,1.5,0,0,1,1.19,1.13,1.38,1.38,0,0,1,.94,0c.06-.15.09-.32.16-.46a1.61,1.61,0,0,1,1-.69l-.09-.47a1.42,1.42,0,0,1,.91-1.27c.29-.13.66,0,.94,0a2.05,2.05,0,0,0-.14-1.1c-.8-1.83-3.88-1.31-3.88-1.31a9.31,9.31,0,0,1,.12,1.92l-2.76,0a3.82,3.82,0,0,0-.06-.69,8.74,8.74,0,0,0-.18-1.29l-3.86,0c0,.66,0,2,0,2h-2.93v-2h-3.87a5.59,5.59,0,0,0-.1,1.88l-2.82.08A10.28,10.28,0,0,1,414,534.21Zm3.5-4.57a7.59,7.59,0,0,0-2.72,6.21H416a6.36,6.36,0,0,1,3.3-5.93,6,6,0,0,1,2.26-.67v6.62h1.33v-6.58c.3-.17.57.1.88.08a6.53,6.53,0,0,1,4.6,4.58,9,9,0,0,1,.2,1.86h1.29c0-.44,0-.73-.07-1.1a7.81,7.81,0,0,0-2.75-5c.06-.24.39-.21.6-.31a6.33,6.33,0,0,1,7.43,8.33c-.11-.06-.1-.27-.21-.38a1.16,1.16,0,0,0-.86-.44,1,1,0,0,0-1,.55,1.09,1.09,0,0,0,0,1.08l.28.28c-.31,0-.72-.19-1,0a1.1,1.1,0,0,0-.55.69,1.43,1.43,0,0,0,.16.83,1.27,1.27,0,0,0,.75.45,1.76,1.76,0,0,0,.86-.24,1.17,1.17,0,0,1-.22.83,1.13,1.13,0,0,1-2-.54.72.72,0,0,0,.22-.8.68.68,0,0,0-.73-.27.72.72,0,0,0-.38.47c-.12.38.58.55.17.91a1.18,1.18,0,0,1-1.07.61,1.22,1.22,0,0,1-.78-.39,1.15,1.15,0,0,1-.25-.83,1.21,1.21,0,0,0,1.13.2,1.16,1.16,0,0,0,.69-1,1.28,1.28,0,0,0-.58-.91,1.78,1.78,0,0,0-.89-.08,1.42,1.42,0,0,0,.28-1,1.27,1.27,0,0,0-.64-.75,1.42,1.42,0,0,0-.91,0,1.15,1.15,0,0,0-.59,1,1.45,1.45,0,0,0,.32.74,1.64,1.64,0,0,0-1,.19,1.12,1.12,0,0,0-.38,1.09,1.11,1.11,0,0,0,.58.71,1.32,1.32,0,0,0,1.19-.14.9.9,0,0,1-.2.78,1.1,1.1,0,0,1-1.66.09c-.16-.22-.37-.45-.24-.75a.57.57,0,0,0,.13-.56.71.71,0,0,0-.41-.35.75.75,0,0,0-.59.16.71.71,0,0,0-.08.59.62.62,0,0,1,.14.5,1.32,1.32,0,0,1-1,.77,1.24,1.24,0,0,1-.85-.39,1.14,1.14,0,0,1-.25-.91,1.11,1.11,0,0,0,1.29.2,1,1,0,0,0,.53-.89,1.13,1.13,0,0,0-.58-1,1.79,1.79,0,0,0-.86-.08,1.41,1.41,0,0,0,.32-.81,1.11,1.11,0,0,0-.55-.9,1.15,1.15,0,0,0-1.15.05,1.09,1.09,0,0,0-.42,1,1.07,1.07,0,0,0,.3.61,1.27,1.27,0,0,0-1.08.34,1.14,1.14,0,0,0-.22,1,1.07,1.07,0,0,0,.9.69,1.65,1.65,0,0,0,.77-.14,1.14,1.14,0,0,1-.72,1,1.11,1.11,0,0,1-1.08-.19,1,1,0,0,1-.38-.71.62.62,0,0,0,.21-.69c-.1-.15-.22-.32-.41-.34a.52.52,0,0,0-.55.17.58.58,0,0,0-.12.55c0,.21.29.26.2.53a1.51,1.51,0,0,1-.69.7,1.28,1.28,0,0,1-1.25-.34.82.82,0,0,1-.16-.77,1,1,0,0,0,1,.14,1.15,1.15,0,0,0,.69-1,1.1,1.1,0,0,0-.42-.8,1.26,1.26,0,0,0-.94-.22,1.33,1.33,0,0,0,.21-1.14,1.21,1.21,0,0,0-.61-.63,1.15,1.15,0,0,0-.91.06,1,1,0,0,0-.55,1,2.36,2.36,0,0,0,.28.75c-.35,0-.7-.07-1,.18a1.56,1.56,0,0,0-.41.73,1.15,1.15,0,0,0,.63,1.07,1.17,1.17,0,0,0,1.17-.16.94.94,0,0,1-.14.71,1.14,1.14,0,0,1-1.1.48,1.33,1.33,0,0,1-.78-.52c-.45-.44.27-.67.06-1.14a.78.78,0,0,0-.45-.36.61.61,0,0,0-.6.28.66.66,0,0,0,0,.55c.06.16.28.17.2.39a1.23,1.23,0,0,1-1,.8,1.19,1.19,0,0,1-1-.38,1,1,0,0,1-.25-.82,1.09,1.09,0,0,0,1.74-.56,1.27,1.27,0,0,0-.22-.89,1.24,1.24,0,0,0-1.17-.39,1.3,1.3,0,0,0,.25-1.18,1.27,1.27,0,0,0-.67-.64,1.08,1.08,0,0,0-.93.11,1,1,0,0,0-.47.83,6.22,6.22,0,0,1,6.5-8.61A4,4,0,0,1,417.45,529.64Z" transform="translate(-289 -524.61)"/><path class="cls-1" d="M422.91,550.94a.65.65,0,0,0-.79-.3.61.61,0,0,0-.32.5.59.59,0,0,0,.22.51,1.42,1.42,0,0,0-.49.62c-.61.29-.46-.48-.87-.52a.57.57,0,0,0-.75.72.63.63,0,0,0,.51.35c.2,0,.07.24.11.36a.92.92,0,0,0,.67.69l.12,8.71-.08.25a3.76,3.76,0,0,0-.89.89l-6.91-.09a.64.64,0,0,1-.14-.22.8.8,0,0,0-.74-.43c-.2-.12-.17-.42-.39-.56a.7.7,0,0,0-.58-.06.57.57,0,0,0-.33.58c.05.29.31.44.56.56l0,.55a1.16,1.16,0,0,0-.55.41.73.73,0,0,0-.63-.19.58.58,0,0,0-.38.45c-.05.19.07.29.1.44a.59.59,0,0,0,.64.19c.13,0,.22-.22.36-.13s.31.31.47.43l0,.39c-.17.13-.39.18-.49.39a.6.6,0,0,0,.08.64.58.58,0,0,0,.61.16c.26-.07.36-.37.46-.58.13,0,.21-.06.33,0a1,1,0,0,0,.59-.6l2.4,0-1.26,4.13h.69l.3-.67,1.09.94,1.08-1,.32.73.73,0-1.4-4.08,3-.13a3.47,3.47,0,0,0,.94,1l-.18,13c-.47.13-.42.73-.89.89a1,1,0,0,0-.21,1,1,1,0,0,0,.49.44,1.24,1.24,0,0,0,.86-.19,3,3,0,0,0,2.24,0,.86.86,0,0,0,.86.19.88.88,0,0,0,.5-.52.84.84,0,0,0-.17-.77c-.58-.18-.38-.95-1-1.06l-.21-13a4.27,4.27,0,0,0,.89-.91l1.74.1,0,2.9a1.19,1.19,0,0,0,1.63,1.38c.45-.65.88.44,1.5.09a1.23,1.23,0,0,0,.88-.83l0-3.5,1.09,0c.18.19.26.47.55.61s.69-.17.55.3c.08.12.18.31.33.35a.73.73,0,0,0,.67-.14.76.76,0,0,0,.1-.52c0-.29-.35-.36-.55-.47-.17-.55.38-.66.61-.94a.58.58,0,0,0,.55.19.76.76,0,0,0,.42-.33.61.61,0,0,0-.12-.58.59.59,0,0,0-.58-.19c-.38.59-.48-.31-.86-.28-.33-.55.38-.46.52-.83a.62.62,0,0,0-.14-.64.83.83,0,0,0-.57-.13c-.13.07-.3.15-.34.3.1.41-.35.27-.54.31a1,1,0,0,0-.59.63l-7,0a3.27,3.27,0,0,0-.92-.9v-8.94l.44-.25a1,1,0,0,0,.28-.75l.41-.2a.67.67,0,0,0,.17-.55.5.5,0,0,0-.31-.35.63.63,0,0,0-.75.16c0,.45-.4.27-.63.31,0-.24-.32-.41-.42-.61A.78.78,0,0,0,422.91,550.94Zm.24-.16c.29.4-.35.91.22,1.18a1.37,1.37,0,0,1,.89-.59,1,1,0,0,1,.82.61.93.93,0,0,1-.33,1l.08,9.35.14.07,7.47,0a1,1,0,0,1,.64-.3,1.07,1.07,0,0,1,.72.38,1.18,1.18,0,0,1,.11.83,1.11,1.11,0,0,1-.52.53c0,.1.14.19.22.24a1.07,1.07,0,0,1,1.09.14,1,1,0,0,1,.27.72,1.36,1.36,0,0,1-.27.61,1,1,0,0,1-.92.17c-.14-.18-.26.07-.38.11-.09.22.24.21.3.38a1,1,0,0,1,.22.83,1,1,0,0,1-.52.59,1,1,0,0,1-1.14-.37h-1.61l-.07.11c-.17,1.21.49,2.71-.89,3.29a1.56,1.56,0,0,1-1.46-.16,1.53,1.53,0,0,1-1.18.2c-1.49-.43-1-2.13-1.09-3.35a2.31,2.31,0,0,0-1.11,0l.07,13.27a1.43,1.43,0,0,1,.36.91,1.11,1.11,0,0,1-.73,1,1.09,1.09,0,0,1-.91-.11,3.53,3.53,0,0,1-2.27,0,1.46,1.46,0,0,1-1,.09,1.08,1.08,0,0,1-.65-1,1.43,1.43,0,0,1,.33-.81v-3.2l0-10.08-1.91-.05,1,3.17h-1.26l-.32-.46-.93.86a4.07,4.07,0,0,0-1-.83l-.19.42h-1.3l1-3.11-2.55-.08a1,1,0,0,1-.9.28,1,1,0,0,1-.56-.53,1.07,1.07,0,0,1,.18-.94c.09-.1.27-.12.26-.28-.28-.46-.69.16-1.05-.16-.28-.11-.36-.3-.48-.55a1.12,1.12,0,0,1,.17-.86A.94.94,0,0,1,411,564c.19.24.34-.1.5-.14A2.8,2.8,0,0,1,411,563a.85.85,0,0,1,.9-1c.3,0,.53.26.75.41l7.27,0,0-8.55c-.09-.37.22-1-.28-1.22a1,1,0,0,1,.19-1,1,1,0,0,1,.83-.19,1.42,1.42,0,0,1,.64.55l.27-.32a1.25,1.25,0,0,1,0-.93.93.93,0,0,1,.75-.45A1.1,1.1,0,0,1,423.15,550.78Z" transform="translate(-289 -524.61)"/><polygon class="cls-1" points="128.44 44.1 127.56 44.9 126.72 44.17 127.55 41.42 128.44 44.1"/><path class="cls-1" d="M427.88,569.37a.75.75,0,0,1-.34.34.53.53,0,0,1-.53-.31c0-1.16,0-3.34,0-3.34l.83,0Z" transform="translate(-289 -524.61)"/><path class="cls-1" d="M429.52,566.05l0,3.38a.51.51,0,0,1-.35.3c-.26,0-.41-.16-.5-.36v-3.29Z" transform="translate(-289 -524.61)"/><rect class="cls-2" y="82.23" width="262.94" height="59.52"/><path class="cls-3" d="M313.09,644.56h-2.41l1,1.49h1.37a7.66,7.66,0,0,0,2-.25,4.93,4.93,0,0,0,1.95-1,3.37,3.37,0,0,0,1-1.68,4.53,4.53,0,0,0-.32-2.91,4.19,4.19,0,0,0-1.44-1.55,9.91,9.91,0,0,0-1.17-.37,5.37,5.37,0,0,0-1.37-.18h-6.57a5.44,5.44,0,0,1,.25.68,4.1,4.1,0,0,1,.07.74v12.52a2.55,2.55,0,0,1-.07.62,3.62,3.62,0,0,1-.25.62h3.38a2.47,2.47,0,0,1-.32-.62,2.55,2.55,0,0,1-.07-.62V639.54c.91.13,2-.06,3,0a2.53,2.53,0,0,1,1.75.81,2.8,2.8,0,0,1,.59,1.18,2.65,2.65,0,0,1-.26,1.73,1.73,1.73,0,0,1-.85.93A3.05,3.05,0,0,1,313.09,644.56Z" transform="translate(-289 -524.61)"/><path class="cls-3" d="M324.43,647h-1.65l3.35,4.52a3.43,3.43,0,0,0,3.43,1.75c-1.41-1.71-2.35-3.9-4.38-5.16a3.82,3.82,0,0,0,1.32-.31l.05,0a2.67,2.67,0,0,0,1-.68,2.73,2.73,0,0,0,.75-1.83,2.21,2.21,0,0,0-.09-.94,2.64,2.64,0,0,0-.38-.77,3,3,0,0,0-1.74-1.11,6.35,6.35,0,0,0-1.32-.14h-4.47a2.05,2.05,0,0,1,.23.49c.1.23,0,.45.05.54v9.1a2.14,2.14,0,0,1-.05.45,1.32,1.32,0,0,1-.23.4h2.44a4.64,4.64,0,0,1-.28-.4,2.33,2.33,0,0,1,0-.41v-9.14h2.35a1.59,1.59,0,0,1,1.46,1.16,1.76,1.76,0,0,1-.05,1.53,1.32,1.32,0,0,1-.65.76A3.55,3.55,0,0,1,324.43,647Z" transform="translate(-289 -524.61)"/><path class="cls-3" d="M333.55,648.14V643c.05-.14.05-.23.1-.36s.19-.22.23-.36h-2.54a2.43,2.43,0,0,1,.19.36,2.5,2.5,0,0,1,.09.36v9.45a1.43,1.43,0,0,1,0,.41,1.7,1.7,0,0,1-.24.4h2.54l-.23-.4s0-.23-.1-.41v-4.35Z" transform="translate(-289 -524.61)"/><path class="cls-3" d="M344.88,643.3v7L336,642v8.73a5.72,5.72,0,0,1-.38,2.56h1.8c0-.36-.24-.59-.29-1a3,3,0,0,1,0-.62v-6.23h.05l8.81,8.15V643.3a2.49,2.49,0,0,1,.14-.58,1.2,1.2,0,0,1,.23-.4h-1.79a2,2,0,0,1,.24.45C344.84,643,344.88,643.3,344.88,643.3Z" transform="translate(-289 -524.61)"/><path class="cls-3" d="M357.78,645.23v-2.37a7.85,7.85,0,0,0-5.83-.49c-.19.09-.33.13-.57.22s-.33.18-.52.31a5.64,5.64,0,0,0-2.82,4.48,4.83,4.83,0,0,0,0,.85c0,.32.09.54.14.81a6,6,0,0,0,1.83,3,4.64,4.64,0,0,0,1.65,1,5.25,5.25,0,0,0,1.89.45,6.74,6.74,0,0,0,4.23-.9v-1.52a4.51,4.51,0,0,1-1.88,1.21,3.87,3.87,0,0,1-1.46.18,2.68,2.68,0,0,1-1.36-.27,4.76,4.76,0,0,1-2.08-1.71,3,3,0,0,1-.42-.67,5,5,0,0,1-.33-.76,5.26,5.26,0,0,1,.14-3.71,3,3,0,0,1,.38-.68,2.82,2.82,0,0,1,.61-.63,4.26,4.26,0,0,1,2-.85c.19,0,.33,0,.52-.09s.32,0,.51,0A4.73,4.73,0,0,1,357.78,645.23Z" transform="translate(-289 -524.61)"/><path class="cls-3" d="M361.63,648.14V643c.05-.14.05-.23.09-.36s.19-.22.24-.36h-2.55a1.72,1.72,0,0,1,.19.36,3.21,3.21,0,0,1,.1.36v9.45a1.15,1.15,0,0,1-.05.41,1.7,1.7,0,0,1-.24.4H362l-.24-.4s0-.23-.09-.41v-4.35Z" transform="translate(-289 -524.61)"/><path class="cls-3" d="M368.06,647h-1.75l.76,1.08h1a5.52,5.52,0,0,0,1.41-.18,3.53,3.53,0,0,0,1.42-.72,2.49,2.49,0,0,0,.75-1.21,3.18,3.18,0,0,0-.24-2.11,2.88,2.88,0,0,0-1-1.12,5.4,5.4,0,0,0-.84-.26,3.76,3.76,0,0,0-1-.14h-4.75a3.45,3.45,0,0,1,.18.49,3.08,3.08,0,0,1,.05.54v9a1.89,1.89,0,0,1-.05.45,2.43,2.43,0,0,1-.18.45h2.44a1.72,1.72,0,0,1-.23-.45,1.89,1.89,0,0,1-.05-.45v-9c.66.09,1.46-.05,2.17,0a1.85,1.85,0,0,1,1.27.58,2.12,2.12,0,0,1,.42.85,1.94,1.94,0,0,1-.19,1.26,1.26,1.26,0,0,1-.61.67A2.32,2.32,0,0,1,368.06,647Z" transform="translate(-289 -524.61)"/><path class="cls-3" d="M380.75,649.49l1.08,2.1a3.46,3.46,0,0,1,.19.68,3.55,3.55,0,0,1,0,1h2.92l-.85-1-4.9-10h-1.92l.51,1.12-3.43,8.34s-.15.27-.24.45l-.23.35c-.24.32-.62.77-.62.77h2v-.49a1.65,1.65,0,0,1,.09-.68,2.52,2.52,0,0,1,.19-.49l3-6.72c.51,1,1.65,3.54,1.65,3.54h-2.55l.57,1Z" transform="translate(-289 -524.61)"/><path class="cls-3" d="M386.79,642.63a2.17,2.17,0,0,1,.14.5v8.6a2.07,2.07,0,0,1,0,.58,4.24,4.24,0,0,1-.33,1h5.94a6,6,0,0,0,4.19-2.15,5.37,5.37,0,0,0,.52-5.87,6.08,6.08,0,0,0-4.52-3h-6.18Zm5.41.81a3.45,3.45,0,0,1,2.36,1,5.11,5.11,0,0,1,1.08,5,3.83,3.83,0,0,1-2.58,2.59c-.29.05-.62.05-.9.09h-3.29v-8.69Z" transform="translate(-289 -524.61)"/><path class="cls-3" d="M401.76,643.22a4.76,4.76,0,0,0-.89.8,5.52,5.52,0,0,0-1.33,2.69,5.58,5.58,0,0,0-.09,1.57,4.72,4.72,0,0,0,.43,1.7,6.71,6.71,0,0,0,1.78,2.33,5.25,5.25,0,0,0,1.51.86,7.25,7.25,0,0,0,1.84.44,10.62,10.62,0,0,0,2.4-.13,5.85,5.85,0,0,0,1.79-.72,6.14,6.14,0,0,0,1.55-1.3,5.83,5.83,0,0,0,1.18-2.42,5,5,0,0,0,.1-2.24,5.47,5.47,0,0,0-.66-1.79,6.27,6.27,0,0,0-1.7-1.93,5.16,5.16,0,0,0-1.69-.85,7.6,7.6,0,0,0-1.94-.31,6.85,6.85,0,0,0-3.29.67A4.49,4.49,0,0,0,401.76,643.22Zm1.65.4a4,4,0,0,1,2-.58,4.63,4.63,0,0,1,1.7.22,4,4,0,0,1,1.7,1.25,6.18,6.18,0,0,1,.94,1.58,4.58,4.58,0,0,1,.37,1.52A4.17,4.17,0,0,1,410,649a4.08,4.08,0,0,1-.33,1.3,3.42,3.42,0,0,1-1,1.34,3.74,3.74,0,0,1-2.16.9,3.86,3.86,0,0,1-3.16-.9,5.62,5.62,0,0,1-1.31-1.7,5.33,5.33,0,0,1-.52-1.83,5.05,5.05,0,0,1,.14-1.93,3.47,3.47,0,0,1,.56-1.3A3.39,3.39,0,0,1,403.41,643.62Z" transform="translate(-289 -524.61)"/><path class="cls-3" d="M422,642.63a2.17,2.17,0,0,1,.14.5v8.6a2.07,2.07,0,0,1,0,.58,4.24,4.24,0,0,1-.33,1h5.94a6,6,0,0,0,4.19-2.15,5.36,5.36,0,0,0,.52-5.87,6.07,6.07,0,0,0-4.52-3h-6.17S421.89,642.5,422,642.63Zm5.42.81a3.44,3.44,0,0,1,2.35,1,5.06,5.06,0,0,1,1.08,5,3.83,3.83,0,0,1-2.58,2.59c-.28.05-.61.05-.89.09h-3.3v-8.69Z" transform="translate(-289 -524.61)"/><path class="cls-3" d="M436.9,643.35h2.64a4.92,4.92,0,0,1,1.79.27v-1.3H434.7a3.22,3.22,0,0,0,.23.45c.05.22.05.4.09.58v8.83c0,.18,0,.35-.09.58a3.77,3.77,0,0,0-.23.54h6.63v-1.48a6.06,6.06,0,0,1-1.79.36H436.9V648.1h3.16a3.12,3.12,0,0,1,1,.31V647H436.9Z" transform="translate(-289 -524.61)"/><path class="cls-3" d="M461.4,648l1.51,2.91a6.46,6.46,0,0,1,.26.93,5.7,5.7,0,0,1,0,1.43h4L466,651.87l-6.78-13.82h-2.67l.72,1.55-4.75,11.53s-.2.37-.32.62-.2.31-.33.49c-.32.44-.85,1.06-.85,1.06h2.81v-.68a2.31,2.31,0,0,1,.12-.93,3.45,3.45,0,0,1,.27-.69l4.1-9.29c.72,1.42,2.28,4.9,2.28,4.9h-3.52l.78,1.42Z" transform="translate(-289 -524.61)"/><path class="cls-3" d="M472.76,643.35h2.08a1.91,1.91,0,0,1,.47.09c.28.09.52.22.75.31v-1.48h-3.34a3.3,3.3,0,0,0-1.83.41,2.55,2.55,0,0,0-.9.85,2.18,2.18,0,0,0-.33.72,2.85,2.85,0,0,0-.05,1.12,3.69,3.69,0,0,0,.38.94,3,3,0,0,0,.76.8,3.26,3.26,0,0,0,.93.5,28.9,28.9,0,0,1,3.11,1.74,1.51,1.51,0,0,1,.43.86,1.23,1.23,0,0,1-.1,1,1.22,1.22,0,0,1-.33.5,2.68,2.68,0,0,1-.94.49,4.39,4.39,0,0,1-1,.09h-1.5a9.32,9.32,0,0,1-1-.09,5.48,5.48,0,0,1-.76-.36v1.48c.56,0,1.18,0,1.7,0s1,0,1.55,0h1.22a3.09,3.09,0,0,0,1.37-.45,2.75,2.75,0,0,0,.8-.67,2.33,2.33,0,0,0,.61-1.35,3.06,3.06,0,0,0-.33-2.1,2.25,2.25,0,0,0-.8-.85,3.52,3.52,0,0,0-.94-.63c-.66-.36-1.41-.63-2.07-1a4.65,4.65,0,0,1-.66-.4c-.19-.13-.38-.18-.52-.4a1.49,1.49,0,0,1-.28-.76,1.84,1.84,0,0,1,.05-.5,1.2,1.2,0,0,1,.33-.45,1.54,1.54,0,0,1,.61-.31A1.89,1.89,0,0,1,472.76,643.35Z" transform="translate(-289 -524.61)"/><path class="cls-3" d="M484.08,643.39h2.17a3.17,3.17,0,0,1,.94.1,2.6,2.6,0,0,1,.56.22v-1.39h-9.28v1.39a2.58,2.58,0,0,1,.71-.22,6,6,0,0,1,.94-.1c.66,0,1.36.05,2.07,0V652s-.05.4-.09.67-.29.63-.29.63h2.64a3.37,3.37,0,0,1-.28-.67c-.05-.23-.05-.41-.09-.63Z" transform="translate(-289 -524.61)"/><path class="cls-3" d="M489.71,643.71v5.51a4.43,4.43,0,0,0,1.92,3.54,5,5,0,0,0,5.14.31,4.53,4.53,0,0,0,2.3-3.31v-6.41a2.08,2.08,0,0,1,.05-.45,5.6,5.6,0,0,1,.34-.58h-1.84a6.29,6.29,0,0,1,.33.58,2.59,2.59,0,0,1,0,.45V650a3,3,0,0,1-.28.9,3.6,3.6,0,0,1-.7.94,5.32,5.32,0,0,1-.94.58,2.86,2.86,0,0,1-1.09.23,2.4,2.4,0,0,1-1-.1,3.38,3.38,0,0,1-1-.49,3,3,0,0,1-.85-.85,2.86,2.86,0,0,1-.48-1.12,3.64,3.64,0,0,1,0-.94v-5.42a4.65,4.65,0,0,1,.14-.81c.1-.22.29-.58.29-.58h-2.64a2.74,2.74,0,0,1,.23.63A5.91,5.91,0,0,1,489.71,643.71Z" transform="translate(-289 -524.61)"/><path class="cls-3" d="M505.24,647h-1.65l3.35,4.52a3.42,3.42,0,0,0,3.44,1.75c-1.42-1.71-2.36-3.9-4.39-5.16a3.88,3.88,0,0,0,1.32-.31l.05,0a2.67,2.67,0,0,0,1-.68,2.83,2.83,0,0,0,.75-1.83,2.23,2.23,0,0,0-.1-.94,2.9,2.9,0,0,0-.37-.77,3.07,3.07,0,0,0-1.74-1.11,6.42,6.42,0,0,0-1.33-.14h-4.47a2.48,2.48,0,0,1,.24.49c.09.23,0,.45,0,.54v9.1a2.66,2.66,0,0,1,0,.45,1.51,1.51,0,0,1-.24.4h2.46a3.94,3.94,0,0,1-.29-.4,2.33,2.33,0,0,1,0-.41v-9.14h2.34a1.69,1.69,0,0,1,1.05.45,1.63,1.63,0,0,1,.42.71,1.72,1.72,0,0,1,0,1.53,1.31,1.31,0,0,1-.66.76A3.55,3.55,0,0,1,505.24,647Z" transform="translate(-289 -524.61)"/><path class="cls-3" d="M514.36,648.14V643c0-.14,0-.23.1-.36s.18-.22.23-.36h-2.55a1.72,1.72,0,0,1,.19.36,3.21,3.21,0,0,1,.1.36v9.45a1.15,1.15,0,0,1,0,.41,1.7,1.7,0,0,1-.24.4h2.55l-.23-.4s-.05-.23-.1-.41v-4.35Z" transform="translate(-289 -524.61)"/><path class="cls-3" d="M523.81,649.49l1.08,2.1a4.32,4.32,0,0,1,.19.68,4.43,4.43,0,0,1,0,1H528l-.85-1-4.9-10h-1.93l.52,1.12-3.44,8.34-.24.45-.23.35c-.23.32-.61.77-.61.77h2v-.49a1.65,1.65,0,0,1,.09-.68,2.29,2.29,0,0,1,.2-.49l3-6.72c.52,1,1.65,3.54,1.65,3.54H520.7l.56,1Z" transform="translate(-289 -524.61)"/><path class="cls-3" d="M532.91,643.35H535a1.91,1.91,0,0,1,.47.09c.28.09.52.22.75.31v-1.48h-3.34a3.36,3.36,0,0,0-1.84.41,2.52,2.52,0,0,0-.89.85,2.18,2.18,0,0,0-.33.72,2.85,2.85,0,0,0,0,1.12,3.69,3.69,0,0,0,.38.94,3,3,0,0,0,.75.8,3.36,3.36,0,0,0,1,.5,29.76,29.76,0,0,1,3.1,1.74,1.51,1.51,0,0,1,.43.86,1.23,1.23,0,0,1-.1,1,1.22,1.22,0,0,1-.33.5,2.87,2.87,0,0,1-.94.49,4.39,4.39,0,0,1-1,.09h-1.5a9.5,9.5,0,0,1-1-.09,5.3,5.3,0,0,1-.75-.36v1.48c.56,0,1.17,0,1.7,0s1,0,1.55,0h1.22a3.13,3.13,0,0,0,1.37-.45,2.75,2.75,0,0,0,.8-.67,2.33,2.33,0,0,0,.61-1.35,2.48,2.48,0,0,0,0-1.21,2.72,2.72,0,0,0-.33-.89,2.31,2.31,0,0,0-.79-.85,3.72,3.72,0,0,0-1-.63c-.66-.36-1.41-.63-2.07-1a5.28,5.28,0,0,1-.66-.4c-.19-.13-.37-.18-.51-.4a1.41,1.41,0,0,1-.29-.76,1.84,1.84,0,0,1,.05-.5,1.2,1.2,0,0,1,.33-.45,1.54,1.54,0,0,1,.61-.31A1.89,1.89,0,0,1,532.91,643.35Z" transform="translate(-289 -524.61)"/><path class="cls-3" d="M373.14,626.88V631l-.19.18a13.91,13.91,0,0,1-2.28.38c-.45,0-.79.12-1.31.12a5,5,0,0,1-1.69-.25,6.75,6.75,0,0,1-4-3.65,7,7,0,0,1,.19-6.64,5.67,5.67,0,0,1,5.08-2.47,5.82,5.82,0,0,1,4.82,2.91v-3.16A9.82,9.82,0,0,0,365,618a7.75,7.75,0,0,0-4.29,4.71,3.15,3.15,0,0,0-.33,1.17,6.63,6.63,0,0,0,.13,3,8.31,8.31,0,0,0,3.06,4.58c3.12,2.61,8.53,1.62,12.05.44V625.2h-3A3.57,3.57,0,0,1,373.14,626.88Z" transform="translate(-289 -524.61)"/><path class="cls-3" d="M380.14,622.68a4.56,4.56,0,0,0-.9.81,5.37,5.37,0,0,0-1.32,2.69,5.58,5.58,0,0,0-.09,1.57,5,5,0,0,0,.42,1.7,6.71,6.71,0,0,0,1.79,2.33,5.25,5.25,0,0,0,1.51.85,6.8,6.8,0,0,0,1.83.45,10.55,10.55,0,0,0,2.4-.14,6.24,6.24,0,0,0,1.8-.71,6.51,6.51,0,0,0,1.55-1.3,6,6,0,0,0,1.17-2.42,5.05,5.05,0,0,0,.1-2.24,5.39,5.39,0,0,0-.66-1.79,6.24,6.24,0,0,0-1.69-1.93,5,5,0,0,0-1.7-.85,7.53,7.53,0,0,0-1.93-.31,6.88,6.88,0,0,0-3.3.66A5.1,5.1,0,0,0,380.14,622.68Zm1.64.41a3.91,3.91,0,0,1,2-.58,4.66,4.66,0,0,1,1.7.22,3.93,3.93,0,0,1,1.69,1.26,5.54,5.54,0,0,1,.94,1.56,4.91,4.91,0,0,1,.38,1.52,3.93,3.93,0,0,1-.1,1.35,4.13,4.13,0,0,1-.32,1.3,3.52,3.52,0,0,1-1,1.34,3.86,3.86,0,0,1-2.17.9,3.82,3.82,0,0,1-3.15-.9,5.66,5.66,0,0,1-1.32-1.7,5.8,5.8,0,0,1-.52-1.84,4.86,4.86,0,0,1,.15-1.93,3.62,3.62,0,0,1,.56-1.3A3.42,3.42,0,0,1,381.78,623.09Z" transform="translate(-289 -524.61)"/><path class="cls-3" d="M397.52,621.79h-5.46a5.08,5.08,0,0,1,.37,1.25v8.83l-.28.89h5.27a3.85,3.85,0,0,0,1.93-.4,2.88,2.88,0,0,0,1.56-2.6,3.07,3.07,0,0,0-1.79-2.82l.38-.4a3,3,0,0,0,.28-3.18A2.72,2.72,0,0,0,397.52,621.79Zm-2,5.91h1.23a2.06,2.06,0,0,1,1.92.85,1.67,1.67,0,0,1,.24,1,2,2,0,0,1-.38,1.47,2.35,2.35,0,0,1-1.74.63h-2.45V623H396a2,2,0,0,1,1.88.81,2,2,0,0,1-.09,2.06,1.92,1.92,0,0,1-1.74.76h-1.47Z" transform="translate(-289 -524.61)"/><path class="cls-3" d="M404.65,627.61v-5.1c.05-.14.05-.23.09-.36s.19-.23.24-.36h-2.54a1.88,1.88,0,0,1,.18.36,3.21,3.21,0,0,1,.1.36V632a1.1,1.1,0,0,1-.05.4,1.8,1.8,0,0,1-.23.4H405l-.24-.4s0-.22-.09-.4v-4.35Z" transform="translate(-289 -524.61)"/><path class="cls-3" d="M408.87,622.82h2.63a4.92,4.92,0,0,1,1.79.27v-1.3h-6.64c.05.13.14.26.24.45s.05.4.09.58v8.82c0,.19,0,.36-.09.59a4.5,4.5,0,0,0-.24.53h6.64v-1.48a5.43,5.43,0,0,1-1.79.36h-2.63v-4.08H412a3.22,3.22,0,0,1,1,.32v-1.43h-4.19Z" transform="translate(-289 -524.61)"/><path class="cls-3" d="M419.05,626.49H417.4l3.34,4.53a3.43,3.43,0,0,0,3.44,1.74c-1.41-1.7-2.35-3.89-4.38-5.15a4.06,4.06,0,0,0,1.31-.31l.05,0a2.55,2.55,0,0,0,1-.67,2.83,2.83,0,0,0,.75-1.83,2.12,2.12,0,0,0-.1-1,3,3,0,0,0-.37-.76,3.13,3.13,0,0,0-1.75-1.12,6.75,6.75,0,0,0-1.31-.13H414.9a2.48,2.48,0,0,1,.24.49c.09.23,0,.45,0,.54v9.09a2.59,2.59,0,0,1,0,.45,1.35,1.35,0,0,1-.24.4h2.45a2.45,2.45,0,0,1-.28-.4,1.76,1.76,0,0,1-.05-.4v-9.14h2.36a1.59,1.59,0,0,1,1,.45,1.61,1.61,0,0,1,.42.72,1.73,1.73,0,0,1,0,1.52,1.41,1.41,0,0,1-.66.76A3.46,3.46,0,0,1,419.05,626.49Z" transform="translate(-289 -524.61)"/><path class="cls-3" d="M435.27,622.77v7l-8.89-8.28v8.73a5.66,5.66,0,0,1-.38,2.55h1.79c-.05-.36-.24-.58-.29-1a3.09,3.09,0,0,1,0-.63v-6.23h.05l8.81,8.16V622.77a3,3,0,0,1,.14-.58,1.35,1.35,0,0,1,.24-.4h-1.8a1.77,1.77,0,0,1,.24.45C435.22,622.46,435.27,622.77,435.27,622.77Z" transform="translate(-289 -524.61)"/><path class="cls-3" d="M440.74,622.68a4.78,4.78,0,0,0-.89.81,5.31,5.31,0,0,0-1.33,2.69,5.58,5.58,0,0,0-.09,1.57,4.57,4.57,0,0,0,.42,1.7,7,7,0,0,0,1.79,2.33,5.25,5.25,0,0,0,1.51.85,6.78,6.78,0,0,0,1.84.45,10.49,10.49,0,0,0,2.39-.14,6,6,0,0,0,1.8-.71,6.51,6.51,0,0,0,1.55-1.3,6,6,0,0,0,1.18-2.42,5.06,5.06,0,0,0,.09-2.24,5.39,5.39,0,0,0-.66-1.79,6.37,6.37,0,0,0-1.69-1.93,5,5,0,0,0-1.69-.85,7.67,7.67,0,0,0-1.94-.31,6.88,6.88,0,0,0-3.3.66A5.1,5.1,0,0,0,440.74,622.68Zm1.64.41a3.94,3.94,0,0,1,2-.58,4.58,4.58,0,0,1,1.69.22,3.9,3.9,0,0,1,1.7,1.26,5.54,5.54,0,0,1,.94,1.56,4.91,4.91,0,0,1,.38,1.52,3.93,3.93,0,0,1-.1,1.35,4.13,4.13,0,0,1-.32,1.3,3.52,3.52,0,0,1-1,1.34,3.84,3.84,0,0,1-2.17.9,3.53,3.53,0,0,1-1.78-.13,3.59,3.59,0,0,1-1.37-.77,5.66,5.66,0,0,1-1.32-1.7,5.55,5.55,0,0,1-.51-1.84,5.05,5.05,0,0,1,.14-1.93,3.62,3.62,0,0,1,.56-1.3A3.42,3.42,0,0,1,442.38,623.09Z" transform="translate(-289 -524.61)"/><path class="cls-3" d="M461,622.1a2.14,2.14,0,0,1,.14.49v8.61a2.59,2.59,0,0,1,0,.58,4.09,4.09,0,0,1-.33,1h5.93a6,6,0,0,0,4.19-2.14,5.36,5.36,0,0,0,.52-5.87,6,6,0,0,0-4.53-3h-6.16S460.86,622,461,622.1Zm5.41.81a3.46,3.46,0,0,1,2.35,1,5.11,5.11,0,0,1,1.08,5,3.82,3.82,0,0,1-2.58,2.6c-.29,0-.62,0-.9.09H463v-8.69Z" transform="translate(-289 -524.61)"/><path class="cls-3" d="M475.87,622.82h2.64a4.92,4.92,0,0,1,1.79.27v-1.3h-6.64c0,.13.14.26.24.45s0,.4.09.58v8.82c-.05.19-.05.36-.09.59a4.5,4.5,0,0,0-.24.53h6.64v-1.48a5.43,5.43,0,0,1-1.79.36h-2.64v-4.08H479a3,3,0,0,1,1,.32v-1.43h-4.19Z" transform="translate(-289 -524.61)"/><path class="cls-3" d="M484.22,628.15v-5.24c0-.18,0-.36.09-.59a5.64,5.64,0,0,0,.24-.53H482a3.87,3.87,0,0,0,.24.53c.05.23.05.41.09.59v8.82c0,.23,0,.36-.09.59a4.16,4.16,0,0,0-.24.44h6.64v-1.3a6,6,0,0,1-1.78.27h-2.64Z" transform="translate(-289 -524.61)"/></svg>