<svg id="Capa_1" data-name="Capa 1" xmlns="http://www.w3.org/2000/svg" viewBox="0 0 562.4 283.01"><defs><style>.cls-1{fill:#ff5100;}.cls-2{fill:#1d1d1b;}</style></defs><path class="cls-1" d="M147,283.77c-.29,2.67-.29,6.37-.29,9.05v3.27h-8.46v13.49h8.46V374.4h20.47V309.58h16.16V296.09H167.16v-3.86a55.4,55.4,0,0,1,.28-6.82c.75-6.68,7.58-9.35,17.21-7.57V263.6a42.32,42.32,0,0,0-9.05-1C156.92,262.57,148.17,270.42,147,283.77Z" transform="translate(-138.23 -141.7)"/><path class="cls-1" d="M259.11,328.86c0-4.3-.14-8.45-.44-12.16-1.19-13.65-9.5-23.28-31.59-23.28-18.84,0-33.23,10.08-33.83,27.88l19.88-.15c.59-8.6,5.05-13.35,13.2-13.35s11.57,4,12.17,9.5a65.83,65.83,0,0,1,.29,7.41v1.63h-5c-28.61,0-43.45,9.79-43.45,27.14,0,15,11.72,23,25.36,23,7.42,0,14.09-1.48,19.58-5.18l3.85-8.46,1.49,11.57h20a137.33,137.33,0,0,1-1.48-20Zm-20.32,16.46c0,11-7,16.77-15.28,16.77-7.27,0-12-3.27-12-10.24,0-10.38,11-14.09,27.29-12.91Z" transform="translate(-138.23 -141.7)"/><path class="cls-1" d="M308.8,307.8c8.45,0,14.39,4.75,16.31,16.16H345.3c-1.49-17.49-14.69-30.54-36.05-30.54-21.66,0-39.46,15.12-39.46,42.12,0,27.29,16.17,40.93,37.68,40.93,19.73,0,34.26-9.94,37.67-29.37H324.68c-2.08,9.95-8,15-16,15-10.23,0-17.64-8.3-17.64-27.89C291,316.26,298.42,307.8,308.8,307.8Z" transform="translate(-138.23 -141.7)"/><path class="cls-1" d="M363.38,352.05c0,4.45,0,7.85.29,11.42.9,11.12,6.38,16.17,21.66,16.17a83,83,0,0,0,13.5-1V365.24c-11.41.89-14.23-.89-14.83-8.6-.14-2.07-.14-4.3-.14-7V313.18h16.31v-13.5H383.86V280.26H363.38v19.42H351.81v13.5h11.57Z" transform="translate(-138.23 -141.7)"/><path class="cls-1" d="M447.18,380.07c26.26,0,40.95-17.65,40.95-41.52,0-24-14.69-41.53-40.95-41.53s-40.93,17.5-40.93,41.53C406.25,362.42,420.93,380.07,447.18,380.07Zm0-68.67c12.32,0,19.73,10.09,19.73,27.15,0,16.91-7.41,27.14-19.73,27.14s-19.72-10.23-19.72-27.14C427.46,321.49,434.88,311.4,447.18,311.4Z" transform="translate(-138.23 -141.7)"/><path class="cls-1" d="M521.94,341.81c0-21.21,8.46-28.78,25.51-27.6V297.75a22.54,22.54,0,0,0-5.78-.59,20.52,20.52,0,0,0-13.49,5.35l-6.24,11V299.09H501.48V378h20.46Z" transform="translate(-138.23 -141.7)"/><rect class="cls-1" x="419.61" y="157.39" width="20.47" height="78.91"/><path class="cls-1" d="M637.79,374.89l3.85-8.46L643.12,378h20a135.81,135.81,0,0,1-1.48-20V332.46c0-4.3-.15-8.44-.45-12.16C660,306.65,651.72,297,629.63,297c-18.85,0-33.23,10.08-33.82,27.88l19.88-.14c.58-8.6,5-13.36,13.2-13.36,8,0,11.56,4,12.16,9.49a63.9,63.9,0,0,1,.3,7.42V330H636.3c-28.63,0-43.47,9.78-43.47,27.14,0,15,11.73,23,25.38,23C625.62,380.07,632.3,378.6,637.79,374.89Zm-23.74-19.43c0-10.39,11-14.1,27.3-12.92v6.39c0,11-7,16.76-15.29,16.76C618.79,365.69,614.05,362.42,614.05,355.46Z" transform="translate(-138.23 -141.7)"/><path class="cls-1" d="M680.8,141.7H617.86c-6.6,0-23.12,4.05-31.29,7.77h69.81c11.41,0,20.71,8.63,20.71,19.24v78.37c0,10.61-9.3,19.24-20.71,19.24H589.91l-32.27,22.56h18.28l46.56-14.81H680.8c10.93,0,19.83-11.49,19.83-21.53V159.92C700.63,149.87,691.73,141.7,680.8,141.7Z" transform="translate(-138.23 -141.7)"/><path class="cls-1" d="M647.28,245.14a9.79,9.79,0,0,1-3.68-.74,13.35,13.35,0,0,1-3.49-2.15l-1.77,5.5a23.08,23.08,0,0,0,2,1.14,13.1,13.1,0,0,0,2.07.81,15.35,15.35,0,0,0,2.4.5,26.31,26.31,0,0,0,3,.15,14,14,0,0,0,5.2-.92,11.73,11.73,0,0,0,4-2.57,10.71,10.71,0,0,0,2.48-3.91,13.86,13.86,0,0,0,.87-5,13,13,0,0,0-.79-4.65,10.49,10.49,0,0,0-2.24-3.61,9.87,9.87,0,0,0-3.49-2.35,11.91,11.91,0,0,0-4.56-.84,8.85,8.85,0,0,0-2.24.14l.66-5.91H659.2l.28-5.45H642.3l-2.19,18.06a25.07,25.07,0,0,1,3.3-1.14,12.92,12.92,0,0,1,3.17-.39,6.74,6.74,0,0,1,5.08,1.77,6.6,6.6,0,0,1,1.72,4.84,6.91,6.91,0,0,1-1.7,4.89A5.78,5.78,0,0,1,647.28,245.14Z" transform="translate(-138.23 -141.7)"/><polygon class="cls-1" points="497.47 78.94 497.69 73.59 479.58 73.59 479.58 108.09 486.11 108.09 486.11 92.68 495.78 92.68 495.78 87.24 486.11 87.24 486.11 78.94 497.47 78.94"/><path class="cls-2" d="M145,402.31a23,23,0,0,1,6.08-.92q8.6,0,8.59,7.59,0,4-2,5.9T151,416.79h-3.65v7.59H145Zm5.68,12.38c1.25,0,2.27,0,3.06-.11a11.49,11.49,0,0,0,2.28-.44,8.46,8.46,0,0,0,1.33-5.05,5.19,5.19,0,0,0-1.6-4.26,7.31,7.31,0,0,0-4.7-1.31,15.19,15.19,0,0,0-3.73.41v10.76Z" transform="translate(-138.23 -141.7)"/><path class="cls-2" d="M174.18,413.44q0-6,2.18-9t7.29-3q4.54,0,6.67,2.83c1.43,1.9,2.14,4.72,2.14,8.48q0,6-2.17,9t-7.3,3Q174.19,424.72,174.18,413.44Zm11.87,8.86a9.08,9.08,0,0,0,2.06-.61,15.68,15.68,0,0,0,1.48-3.81,18.67,18.67,0,0,0,.55-4.66q0-5.06-1.58-7.36t-5.42-2.3a14.57,14.57,0,0,0-2.64.24,7.52,7.52,0,0,0-2.08.65,17.11,17.11,0,0,0-1.92,8.47c0,3.37.53,5.81,1.57,7.34s2.86,2.28,5.44,2.28A13.49,13.49,0,0,0,186.05,422.3Z" transform="translate(-138.23 -141.7)"/><path class="cls-2" d="M207.2,401.94l2.51-.29q1.62,8.84,4.61,20h.25q2.7-6.78,5.42-15.59-.56-2.2-.81-3.87l2.32-.26q1.08,5.13,2.45,9.86t3.08,9.86h.33q2.85-10.62,4.61-20l2.51.29q-2.55,11.46-5.83,22.44h-2.91q-2.81-7.87-4.57-14.18h-.4q-2.58,7.95-5.13,14.18H213Q209.68,413.22,207.2,401.94Z" transform="translate(-138.23 -141.7)"/><path class="cls-2" d="M252.13,424c-1.35-.47-2-1.26-2-2.36v-19.9h13.68v2.13H252.39V412h10.32v2.07H252.39v8.07a29.78,29.78,0,0,0,5.38.44,26.67,26.67,0,0,0,5.89-.59l.52,2a26.26,26.26,0,0,1-6.52.7A17.67,17.67,0,0,1,252.13,424Z" transform="translate(-138.23 -141.7)"/><path class="cls-2" d="M294.22,424.29a2.37,2.37,0,0,1-.89-1.08l-2.25-5.09a10.36,10.36,0,0,0-.9-1.73,2.94,2.94,0,0,0-1.21-1,5.31,5.31,0,0,0-2.16-.37h-4.05v9.36h-2.33V402.27a21.71,21.71,0,0,1,6.05-.88c2.73,0,4.75.54,6.06,1.64a6.18,6.18,0,0,1,2,5,6.44,6.44,0,0,1-3.68,6.12v.29a4.33,4.33,0,0,1,1.36,1,6.17,6.17,0,0,1,1,1.56l2.58,5.72,1.84.29v1.33a6.82,6.82,0,0,1-1.95.29A2.51,2.51,0,0,1,294.22,424.29Zm-4.68-11.37a6.09,6.09,0,0,0,2-1.95,5.67,5.67,0,0,0,.62-2.84,4.25,4.25,0,0,0-1.36-3.54,7.23,7.23,0,0,0-4.42-1.07,18,18,0,0,0-3.61.37v9Z" transform="translate(-138.23 -141.7)"/><path class="cls-2" d="M314.71,424c-1.35-.47-2-1.26-2-2.36v-19.9h13.67v2.13H315V412h10.32v2.07H315v8.07a29.78,29.78,0,0,0,5.38.44,26.73,26.73,0,0,0,5.89-.59l.52,2a26.26,26.26,0,0,1-6.52.7A17.67,17.67,0,0,1,314.71,424Z" transform="translate(-138.23 -141.7)"/><path class="cls-2" d="M343,402.09a27.2,27.2,0,0,1,6.19-.7q5.39,0,7.74,2.87c1.58,1.92,2.36,4.74,2.36,8.48a18.78,18.78,0,0,1-.88,6.17,7.58,7.58,0,0,1-3.19,4,11.85,11.85,0,0,1-6.39,1.47H343Zm5.79,20.16a22.28,22.28,0,0,0,6.12-.74,10.2,10.2,0,0,0,1.53-3.59,21.68,21.68,0,0,0,.53-5,15.86,15.86,0,0,0-.75-5.34,5.71,5.71,0,0,0-2.49-3.08,9.23,9.23,0,0,0-4.68-1,27.61,27.61,0,0,0-3.72.3v18.43Z" transform="translate(-138.23 -141.7)"/><path class="cls-2" d="M386.24,402.2a22.76,22.76,0,0,1,5.9-.81c2.65,0,4.63.52,5.92,1.56a5.66,5.66,0,0,1,1.93,4.67,5.74,5.74,0,0,1-3,5.16V413c2.72.88,4.09,2.58,4.09,5.09a6.89,6.89,0,0,1-.8,3.5,5.06,5.06,0,0,1-2.72,2.1,15.51,15.51,0,0,1-5.33.73h-6Zm9.51,9.73a5.44,5.44,0,0,0,2-4.28,3.6,3.6,0,0,0-1.39-3.17,7.61,7.61,0,0,0-4.29-1,21.84,21.84,0,0,0-3.5.34v8.07ZM392,422.28a15.28,15.28,0,0,0,4.19-.44,3.51,3.51,0,0,0,2.06-1.33,4.26,4.26,0,0,0,.57-2.35,3.79,3.79,0,0,0-1.29-3,5.62,5.62,0,0,0-3.8-1.12h-5.19v8.25Z" transform="translate(-138.23 -141.7)"/><path class="cls-2" d="M424,416.24h-.74a57.14,57.14,0,0,1-4.35-6.47,67.67,67.67,0,0,1-3.72-7.57l2.32-.63a61.62,61.62,0,0,0,3.28,6.91,56.46,56.46,0,0,0,3.72,5.92h1.29a60.7,60.7,0,0,0,3.71-5.94,64,64,0,0,0,3.26-6.89l2.32.63a69.49,69.49,0,0,1-3.7,7.57,53.57,53.57,0,0,1-4.37,6.47h-.7v8.14H424Z" transform="translate(-138.23 -141.7)"/><path class="cls-2" d="M460,422.76l1.36-3.42a14.69,14.69,0,0,0,7,1.65,18.07,18.07,0,0,0,3.72-.33,6.48,6.48,0,0,0,.37-2.28,2.57,2.57,0,0,0-.89-2.12,8.45,8.45,0,0,0-3.2-1.27,21.72,21.72,0,0,1-4.09-1.35,6.32,6.32,0,0,1-2.58-2.1,5.93,5.93,0,0,1-1-3.52,6.42,6.42,0,0,1,2-4.88q2-1.9,6.12-1.9a15.73,15.73,0,0,1,3.92.42,13,13,0,0,1,3,1.2v1.33a12,12,0,0,1-.19,2,10,10,0,0,1-.44,1.84H472l-.41-3a19.2,19.2,0,0,0-2.91-.22,5,5,0,0,0-2.95.69,2.71,2.71,0,0,0-.92,2.29,2.37,2.37,0,0,0,1,2.06,10.63,10.63,0,0,0,3.63,1.29,12.48,12.48,0,0,1,5.42,2.27,5.53,5.53,0,0,1,1.69,4.44,6.45,6.45,0,0,1-2,5q-2,1.86-6.41,1.86A16.73,16.73,0,0,1,460,422.76Z" transform="translate(-138.23 -141.7)"/><path class="cls-2" d="M492.09,401.61h4.06v22.77h-4.06Z" transform="translate(-138.23 -141.7)"/><path class="cls-2" d="M513.17,401.61h5.13l4.6,12.46h.26l4.64-12.46h5.09l.89,22.77h-4.1l-.4-11.46,0-5.75-.3-.07-4.42,11.06h-3.13L517,407.1l-.29.07.07,5.75-.44,11.46h-4.09Z" transform="translate(-138.23 -141.7)"/><path class="cls-2" d="M549.84,402.35a23.75,23.75,0,0,1,7-1q9.36,0,9.36,7.82c0,2.8-.79,4.89-2.39,6.28s-4.07,2.08-7.41,2.08H553.9v6.89h-4.06Zm6.08,11.49c1.23,0,2.26,0,3.08-.11a14.78,14.78,0,0,0,2.27-.36,7.75,7.75,0,0,0,1-4.06,3.93,3.93,0,0,0-1.31-3.32,6.46,6.46,0,0,0-3.93-1,13.84,13.84,0,0,0-3.09.29v8.55Z" transform="translate(-138.23 -141.7)"/><path class="cls-2" d="M581,401.61h4v19H595.1v3.75H581Z" transform="translate(-138.23 -141.7)"/><path class="cls-2" d="M611.08,421.82q-2.42-2.85-2.42-8.42,0-6.15,2.51-9.16t7.85-3q9.62,0,9.62,11.31,0,6.12-2.53,9.13t-7.86,3Q613.5,424.68,611.08,421.82Zm12-1.53a17.49,17.49,0,0,0,1.48-7.11,15.86,15.86,0,0,0-.56-4.64,4.74,4.74,0,0,0-1.9-2.66,6.74,6.74,0,0,0-3.74-.88,11.81,11.81,0,0,0-4.35.66,17.69,17.69,0,0,0-1.36,7.12,15.72,15.72,0,0,0,.57,4.66,4.72,4.72,0,0,0,1.92,2.65,6.75,6.75,0,0,0,3.7.87A11.17,11.17,0,0,0,623.11,420.29Z" transform="translate(-138.23 -141.7)"/><path class="cls-2" d="M644.08,401.61h5l9.47,17.61.29-.07-.4-5.86V401.61h4.09v22.77h-5L648,406.77l-.29.07.4,5.9v11.64h-4Z" transform="translate(-138.23 -141.7)"/></svg>